<svg xmlns="http://www.w3.org/2000/svg" xmlns:xlink="http://www.w3.org/1999/xlink" width="1080" zoomAndPan="magnify" viewBox="0 0 810 809.999993" height="1080" preserveAspectRatio="xMidYMid meet" version="1.0"><defs><clipPath id="b733bd066b"><path d="M 0.121094 124.539062 L 809.835938 124.539062 L 809.835938 685.539062 L 0.121094 685.539062 Z M 0.121094 124.539062 " clip-rule="nonzero"/></clipPath></defs><g clip-path="url(#b733bd066b)"><path fill="#191919" d="M 580.597656 293.4375 C 587.867188 286.542969 598.226562 289.972656 606.5625 282.769531 C 620.316406 270.867188 631.910156 259.238281 647.753906 252.136719 C 703.320312 227.195312 766.878906 246.234375 795.964844 300.609375 C 803.753906 315.1875 808.28125 332.753906 809.515625 353.234375 C 811.882812 392.582031 801.28125 428.976562 777.648438 462.460938 C 759.539062 488.15625 737.964844 509.082031 712.925781 525.273438 C 682.433594 544.996094 658.457031 555.734375 624.191406 572.40625 C 622.511719 573.230469 621.105469 574.570312 620.179688 576.214844 C 606.148438 601.222656 587.183594 621.464844 563.207031 636.902344 C 562.109375 637.585938 561.421875 638.753906 561.320312 640.058594 C 560.667969 649.835938 555.007812 657.210938 544.273438 662.183594 C 533.878906 667.019531 521.222656 670.898438 506.371094 673.8125 C 476.460938 679.679688 446.070312 683.28125 415.199219 684.621094 C 356.238281 687.226562 296.386719 684.722656 238.417969 671.171875 C 219.726562 666.816406 198.425781 661.773438 190.464844 645.71875 C 188.167969 641.085938 186.867188 638.546875 186.625 638.101562 C 185.9375 636.832031 184.910156 635.804688 183.640625 635.117188 C 117.992188 598.890625 82.042969 527.398438 89.589844 453.199219 C 90.652344 442.734375 92.917969 428.566406 96.382812 410.726562 C 96.691406 409.285156 96.726562 407.8125 96.554688 406.371094 C 94.324219 388.945312 92.8125 377.65625 92.027344 372.476562 C 85.714844 331.550781 56.660156 291.3125 12.894531 288.394531 C -6.074219 287.125 -1.785156 268.910156 11.902344 262.667969 C 29.289062 254.671875 46.75 236.253906 71.171875 234.640625 C 90.34375 233.371094 109.722656 237.726562 129.242188 247.777344 C 146.632812 256.730469 163.507812 267.125 179.9375 279.03125 C 180.792969 279.648438 181.960938 279.546875 182.679688 278.789062 L 204.90625 256.5625 C 205.660156 255.804688 205.695312 254.605469 205.011719 253.78125 L 200.070312 248.15625 C 199.179688 247.125 198.765625 245.753906 198.9375 244.417969 C 199.386719 240.574219 201.269531 237.453125 204.632812 235.050781 C 205.113281 234.707031 205.730469 234.535156 206.347656 234.535156 L 218.867188 234.535156 C 219.863281 234.535156 220.824219 234.160156 221.542969 233.507812 C 238.589844 218.6875 257.695312 208.121094 278.890625 201.773438 C 301.804688 194.949219 324.71875 190.660156 347.664062 188.980469 C 348.898438 188.875 349.859375 187.847656 349.859375 186.613281 L 349.859375 170.59375 C 349.859375 167.640625 347.871094 165.035156 345.023438 164.28125 C 338.882812 162.667969 334.5625 160.679688 332.023438 158.34375 C 313.363281 141.363281 334.9375 129.527344 349.894531 126.992188 C 371.023438 123.421875 412.492188 121.46875 426.761719 137.832031 C 429.882812 141.398438 430.84375 146.0625 429.296875 149.835938 C 425.492188 159.203125 417.054688 161.808594 408.339844 165.34375 C 407.175781 165.824219 406.386719 166.921875 406.316406 168.191406 L 405.117188 186.507812 C 405.046875 187.777344 406.007812 188.808594 407.277344 188.84375 C 445.386719 189.90625 499.648438 204.074219 529.144531 231.105469 C 530.105469 232 531.375 232.511719 532.714844 232.617188 L 543.828125 233.335938 C 544.445312 233.371094 545.027344 233.542969 545.574219 233.78125 C 550.550781 236.113281 553.292969 240.4375 553.875 246.75 C 553.980469 247.746094 553.601562 248.738281 552.882812 249.460938 L 549.625 252.71875 C 547.804688 254.535156 547.703125 257.453125 549.382812 259.375 L 578.949219 293.335938 C 579.394531 293.816406 580.117188 293.882812 580.597656 293.4375 Z M 641.753906 519.578125 C 646.246094 519.167969 650.5 518.101562 654.511719 516.421875 C 719.855469 488.632812 781.835938 417.589844 767.324219 341.328125 C 761.5625 310.867188 736.660156 284.621094 703.5625 282.117188 C 668.988281 279.476562 633.074219 295.222656 625.699219 330.558594 C 625.5625 331.277344 625.496094 332.03125 625.53125 332.785156 L 626.457031 353.234375 C 626.523438 354.808594 625.976562 356.320312 624.945312 357.519531 L 620.660156 362.425781 C 619.628906 363.625 619.390625 365.308594 620.042969 366.75 C 641.957031 414.261719 648.578125 464.585938 639.96875 517.65625 C 639.796875 518.71875 640.691406 519.679688 641.753906 519.578125 Z M 641.753906 519.578125 " fill-opacity="1" fill-rule="evenodd"/></g></svg>