<svg width="1080" height="748" viewBox="0 0 1080 748" fill="none" xmlns="http://www.w3.org/2000/svg">
<mask id="mask0_2_9" style="mask-type:luminance" maskUnits="userSpaceOnUse" x="0" y="0" width="1080" height="748">
<path d="M0 0H1079.62V748H0V0Z" fill="white"/>
</mask>
<g mask="url(#mask0_2_9)">
<path fill-rule="evenodd" clip-rule="evenodd" d="M773.969 225.198C783.662 216.005 797.474 220.578 808.589 210.974C826.927 195.104 842.385 179.599 863.51 170.13C937.599 136.875 1022.34 162.26 1061.13 234.76C1071.51 254.198 1077.55 277.62 1079.19 304.927C1082.35 357.391 1068.21 405.917 1036.7 450.562C1012.56 484.823 983.792 512.724 950.406 534.312C909.75 560.609 877.781 574.927 832.094 597.156C829.854 598.255 827.979 600.042 826.745 602.234C808.037 635.578 782.75 662.568 750.781 683.151C749.318 684.062 748.401 685.62 748.266 687.359C747.396 700.396 739.849 710.229 725.537 716.859C711.677 723.307 694.802 728.479 675 732.365C635.12 740.187 594.599 744.99 553.438 746.776C474.823 750.25 395.021 746.911 317.729 728.844C292.807 723.036 264.406 716.312 253.792 694.906C250.729 688.729 248.995 685.344 248.672 684.75C247.755 683.057 246.385 681.687 244.693 680.771C157.161 632.469 109.229 537.146 119.292 438.214C120.708 424.26 123.729 405.37 128.349 381.583C128.76 379.661 128.807 377.698 128.578 375.776C125.604 352.542 123.589 337.49 122.542 330.583C114.125 276.016 75.3854 222.365 17.0312 218.474C-8.26042 216.781 -2.54167 192.495 15.7083 184.172C38.8906 173.51 62.1719 148.953 94.7344 146.802C120.297 145.109 146.135 150.917 172.161 164.318C195.349 176.255 217.849 190.115 239.755 205.99C240.896 206.812 242.453 206.677 243.411 205.667L273.047 176.031C274.052 175.021 274.099 173.422 273.188 172.323L266.599 164.823C265.411 163.448 264.859 161.62 265.089 159.839C265.688 154.714 268.198 150.552 272.682 147.349C273.323 146.891 274.146 146.661 274.969 146.661H291.661C292.99 146.661 294.271 146.161 295.229 145.292C317.958 125.531 343.432 111.443 371.693 102.979C402.245 93.8802 432.797 88.1614 463.391 85.9218C465.036 85.7812 466.318 84.4114 466.318 82.7656V61.4062C466.318 57.4687 463.667 53.9948 459.87 52.9895C451.682 50.8385 445.922 48.1875 442.536 45.0729C417.656 22.4323 446.422 6.651 466.365 3.27079C494.536 -1.48962 549.828 -4.09379 568.854 17.7239C573.016 22.4791 574.297 28.6979 572.234 33.7291C567.161 46.2187 555.911 49.6927 544.292 54.4062C542.74 55.0468 541.688 56.5104 541.594 58.2031L539.995 82.625C539.901 84.3177 541.182 85.6927 542.875 85.7395C593.688 87.1562 666.037 106.047 705.365 142.089C706.646 143.281 708.339 143.964 710.125 144.104L724.943 145.062C725.766 145.109 726.542 145.339 727.271 145.656C733.906 148.766 737.563 154.531 738.339 162.948C738.479 164.276 737.974 165.599 737.016 166.562L732.672 170.906C730.245 173.328 730.109 177.219 732.349 179.781L771.771 225.062C772.365 225.703 773.328 225.792 773.969 225.198ZM855.51 526.719C861.5 526.172 867.172 524.75 872.521 522.51C959.646 485.458 1042.29 390.734 1022.94 289.052C1015.26 248.437 982.052 213.443 937.922 210.104C891.823 206.583 843.938 227.578 834.104 274.693C833.922 275.651 833.833 276.656 833.88 277.661L835.115 304.927C835.203 307.026 834.474 309.042 833.099 310.641L827.385 317.182C826.01 318.781 825.693 321.026 826.563 322.948C855.781 386.297 864.609 453.396 853.13 524.156C852.901 525.573 854.094 526.854 855.51 526.719Z" fill="#191919"/>
</g>
</svg>
